<?xml version="1.0" encoding="utf-8"?>
<!-- Generator: Adobe Illustrator 27.5.0, SVG Export Plug-In . SVG Version: 6.00 Build 0)  -->
<svg version="1.1" id="Layer_1" xmlns="http://www.w3.org/2000/svg" xmlns:xlink="http://www.w3.org/1999/xlink" x="0px" y="0px"
	 viewBox="0 0 2000 3000" style="enable-background:new 0 0 2000 3000;" xml:space="preserve">
<g>
	<rect style="fill:#020100;" width="2000" height="3000"/>
	<path style="fill:#141312;" d="M0,353.562c0,0,560.891,239.291,656.16,606.059s304.537,585.046,724.39,811.551
		S2000,2407.758,2000,2407.758V3000H0V353.562z"/>
	<polygon style="fill:#F1DCCC;" points="267.509,930.31 280.27,912.636 274.407,933.632 296.182,932.589 276.111,941.096 
		290.503,957.47 271.337,947.082 267.509,968.543 263.681,947.082 244.515,957.47 258.907,941.096 238.836,932.589 260.611,933.632 
		254.748,912.636 	"/>
	<polygon style="fill:#F1DCCC;" points="1638.436,238.432 1651.196,220.757 1645.334,241.753 1667.109,240.71 1647.038,249.218 
		1661.43,265.591 1642.264,255.204 1638.436,276.665 1634.608,255.204 1615.442,265.591 1629.834,249.218 1609.763,240.71 
		1631.538,241.753 1625.675,220.757 	"/>
	<polygon style="fill:#F1DCCC;" points="319.744,2649.384 332.504,2631.709 326.642,2652.706 348.417,2651.663 328.346,2660.17 
		342.738,2676.544 323.572,2666.156 319.744,2687.617 315.916,2666.156 296.75,2676.544 311.142,2660.17 291.071,2651.663 
		312.846,2652.706 306.983,2631.709 	"/>
	<polygon style="fill:#F1DCCC;" points="1865.369,1385.725 1878.129,1368.05 1872.267,1389.047 1894.042,1388.003 
		1873.971,1396.511 1888.363,1412.885 1869.197,1402.497 1865.369,1423.958 1861.541,1402.497 1842.375,1412.885 1856.767,1396.511 
		1836.696,1388.003 1858.471,1389.047 1852.608,1368.05 	"/>
	<polygon style="fill:#F1DCCC;" points="1748.575,2437.58 1761.336,2419.906 1755.474,2440.902 1777.248,2439.859 
		1757.177,2448.366 1771.569,2464.74 1752.403,2454.352 1748.575,2475.813 1744.747,2454.352 1725.582,2464.74 1739.974,2448.366 
		1719.903,2439.859 1741.677,2440.902 1735.815,2419.906 	"/>
	<path style="fill:#F1DCCC;" d="M1412.16,612.288c0,2.182-1.769,3.951-3.951,3.951c-2.182,0-3.951-1.769-3.951-3.951
		s1.769-3.951,3.951-3.951C1410.391,608.337,1412.16,610.106,1412.16,612.288z"/>
	<path style="fill:#F1DCCC;" d="M1777.248,808.971c0,2.182-1.769,3.951-3.951,3.951c-2.182,0-3.951-1.769-3.951-3.951
		c0-2.182,1.769-3.951,3.951-3.951C1775.479,805.02,1777.248,806.789,1777.248,808.971z"/>
	<circle style="fill:#F1DCCC;" cx="1376.599" cy="1192.365" r="3.951"/>
	<circle style="fill:#F1DCCC;" cx="267.509" cy="196.754" r="3.951"/>
	<circle style="fill:#F1DCCC;" cx="660.111" cy="1263.487" r="3.951"/>
	<path style="fill:#F1DCCC;" d="M175.428,1544.023c0,2.182-1.769,3.951-3.951,3.951c-2.182,0-3.951-1.769-3.951-3.951
		c0-2.182,1.769-3.951,3.951-3.951C173.659,1540.072,175.428,1541.841,175.428,1544.023z"/>
	<path style="fill:#F1DCCC;" d="M1580.306,1839.048c0,3.516-2.85,6.366-6.366,6.366c-3.516,0-6.366-2.85-6.366-6.366
		c0-3.516,2.85-6.366,6.366-6.366C1577.456,1832.682,1580.306,1835.532,1580.306,1839.048z"/>
	<path style="fill:#F1DCCC;" d="M399.55,2117.17c0,3.516-2.85,6.366-6.366,6.366s-6.366-2.85-6.366-6.366
		c0-3.516,2.85-6.366,6.366-6.366S399.55,2113.654,399.55,2117.17z"/>
	<g>
		<g>
			<g>
				<circle style="fill:#F1DCCC;" cx="1000" cy="1467.527" r="186.131"/>
			</g>
		</g>
		<g>
			<g>
				<g>
					<path style="fill:#F1DCCC;" d="M1000,429.356c-94.087,0-171.866-69.81-184.373-160.458c-1.158,8.392-1.758,16.962-1.758,25.673
						c0,102.797,83.334,186.131,186.131,186.131s186.131-83.334,186.131-186.131c0-8.711-0.6-17.281-1.758-25.673
						C1171.866,359.547,1094.087,429.356,1000,429.356z"/>
				</g>
			</g>
			<g>
				<g>
					<path style="fill:#F1DCCC;" d="M1000,819.258c-75.606,0-140.681-45.079-169.819-109.824
						c-10.48,23.286-16.312,49.115-16.312,76.307c0,102.797,83.334,186.131,186.131,186.131s186.131-83.334,186.131-186.131
						c0-27.192-5.832-53.021-16.312-76.307C1140.681,774.179,1075.605,819.258,1000,819.258z"/>
				</g>
			</g>
			<g>
				<g>
					<path style="fill:#F1DCCC;" d="M1000,2505.698c-94.087,0-171.866,69.81-184.373,160.458
						c-1.158-8.392-1.758-16.963-1.758-25.673c0-102.797,83.334-186.131,186.131-186.131s186.131,83.333,186.131,186.131
						c0,8.711-0.6,17.281-1.758,25.673C1171.866,2575.508,1094.087,2505.698,1000,2505.698z"/>
				</g>
			</g>
			<g>
				<g>
					<path style="fill:#F1DCCC;" d="M1000,2115.797c-75.606,0-140.681,45.079-169.819,109.824
						c-10.48-23.286-16.312-49.115-16.312-76.307c0-102.797,83.334-186.131,186.131-186.131s186.131,83.334,186.131,186.131
						c0,27.192-5.832,53.021-16.312,76.307C1140.681,2160.876,1075.605,2115.797,1000,2115.797z"/>
				</g>
			</g>
		</g>
	</g>
</g>
</svg>
